/* XPM */
static char * function2_xpm[] = {
"12 12 12 1",
" 	c None",
".	c #FFFFFF",
"+	c #000000",
"@	c #DBDBDB",
"#	c #F3F3F3",
"$	c #9F9F9F",
"%	c #949494",
"&	c #B7B7B7",
"*	c #E7E7E7",
"=	c #ABABAB",
"-	c #CFCFCF",
";	c #888888",
"............",
"...+++++@#..",
"...+$%$$&*..",
"...+%=--@#..",
"...+$-......",
"...++++@#...",
"...+;;$&*...",
"...+%=-@#...",
"...+$-......",
"...+$-......",
"...@&@......",
"...#*#......"};
