/* XPM */
static const char *typ2_xpm[] = {
/* columns rows colors chars-per-pixel */
"12 12 10 1",
". c Black",
"  c #FFFFFF",
"@ c #888888",
"+ c #9F9F9F",
"X c #DBDBDB",
"O c #B7B7B7",
"$ c #CFCFCF",
"# c #949494",
"% c #ABABAB",
"o c #E7E7E7",
/* pixels */
"            ",
"  .......X  ",
"  oO+.@#+Oo ",
"   X$.@%$X  ",
"     .+$    ",
"     .+$    ",
"     .+$    ",
"     .+$    ",
"     .+$    ",
"     .+$    ",
"     XOX    ",
"      o     "
};
